<svg height="100" viewBox="0 0 1884 584" fill="none" xmlns="http://www.w3.org/2000/svg">
<mask id="path-1-outside-1_14_60" maskUnits="userSpaceOnUse" x="10.8207" y="9" width="448" height="537" fill="black">
<rect fill="white" x="10.8207" y="9" width="448" height="537"/>
<path d="M66.3753 285.236C72.6988 264.631 224.807 156.786 245.256 158.237C265.706 159.691 387.086 235.372 393.363 245.845C399.089 255.404 427.71 389.324 432.668 412.655C433.137 414.863 432.472 417.071 431.139 418.892C421.921 431.481 410.638 462.235 418.414 510.235C418.99 513.793 414.529 515.311 412.925 512.083C401.561 489.204 383.01 465.304 349.707 487.574C342.457 492.422 332.048 489.99 328.363 482.085C316.491 456.617 295.442 432.798 259.032 475.931C253.93 481.974 244.819 482.813 238.782 477.705C214.244 456.943 189.64 449.414 147.185 496.185C142.837 500.975 135.832 502.453 129.949 499.763C97.6547 484.993 68.7082 480.153 42.7933 518.389C40.0749 522.399 35.4178 520.555 37.2279 516.061C47.288 491.089 60.0459 460.827 66.3753 424.63C75.1664 374.354 60.0537 305.84 66.3753 285.236ZM172.458 160.979C172.505 163.507 171.355 165.909 169.355 167.456L153.74 179.535C150.321 182.179 145.42 181.631 142.671 178.296L117.432 147.676C108.819 137.227 108.273 122.302 116.101 111.252L170.117 35L172.458 160.979Z"/>
</mask>
<path d="M66.3753 285.236C72.6988 264.631 224.807 156.786 245.256 158.237C265.706 159.691 387.086 235.372 393.363 245.845C399.089 255.404 427.71 389.324 432.668 412.655C433.137 414.863 432.472 417.071 431.139 418.892C421.921 431.481 410.638 462.235 418.414 510.235C418.99 513.793 414.529 515.311 412.925 512.083C401.561 489.204 383.01 465.304 349.707 487.574C342.457 492.422 332.048 489.99 328.363 482.085C316.491 456.617 295.442 432.798 259.032 475.931C253.93 481.974 244.819 482.813 238.782 477.705C214.244 456.943 189.64 449.414 147.185 496.185C142.837 500.975 135.832 502.453 129.949 499.763C97.6547 484.993 68.7082 480.153 42.7933 518.389C40.0749 522.399 35.4178 520.555 37.2279 516.061C47.288 491.089 60.0459 460.827 66.3753 424.63C75.1664 374.354 60.0537 305.84 66.3753 285.236ZM172.458 160.979C172.505 163.507 171.355 165.909 169.355 167.456L153.74 179.535C150.321 182.179 145.42 181.631 142.671 178.296L117.432 147.676C108.819 137.227 108.273 122.302 116.101 111.252L170.117 35L172.458 160.979Z" fill="#2E2D3C"/>
<path d="M66.3753 285.236L42.4755 277.902L42.475 277.903L66.3753 285.236ZM245.256 158.237L247.029 133.3L247.026 133.3L245.256 158.237ZM393.363 245.845L414.809 232.997L414.806 232.992L393.363 245.845ZM432.668 412.655L457.122 407.459L457.122 407.458L432.668 412.655ZM431.139 418.892L451.31 433.661L451.311 433.66L431.139 418.892ZM418.414 510.235L443.093 506.24L443.093 506.238L418.414 510.235ZM412.925 512.083L390.535 523.205L390.536 523.206L412.925 512.083ZM349.707 487.574L363.604 508.356L363.605 508.356L349.707 487.574ZM328.363 482.085L305.703 492.647L305.703 492.647L328.363 482.085ZM259.032 475.931L278.135 492.057L278.135 492.057L259.032 475.931ZM238.782 477.705L222.633 496.79L222.634 496.791L238.782 477.705ZM147.185 496.185L165.695 512.988L165.696 512.988L147.185 496.185ZM129.949 499.763L119.551 522.498L119.552 522.498L129.949 499.763ZM42.7933 518.389L63.4878 532.415L63.488 532.415L42.7933 518.389ZM37.2279 516.061L14.0389 506.719L14.0383 506.72L37.2279 516.061ZM66.3753 424.63L91.0017 428.936L91.0017 428.936L66.3753 424.63ZM172.458 160.979L147.463 161.444L147.463 161.444L172.458 160.979ZM169.355 167.456L184.651 187.23L184.651 187.23L169.355 167.456ZM153.74 179.535L169.035 199.31L169.036 199.309L153.74 179.535ZM142.671 178.296L123.38 194.197L123.38 194.197L142.671 178.296ZM117.432 147.676L136.723 131.775L136.723 131.774L117.432 147.676ZM116.101 111.252L95.7008 96.8008L95.7008 96.8009L116.101 111.252ZM170.117 35L195.112 34.5354C194.912 23.737 187.799 14.2883 177.478 11.1083C167.156 7.92821 155.959 11.7358 149.716 20.5489L170.117 35ZM66.3753 285.236L90.2752 292.571C89.3372 295.627 88.0893 296.858 89.0749 295.566C89.7022 294.744 90.9145 293.328 92.9216 291.274C96.9098 287.191 102.752 281.889 110.191 275.644C124.986 263.225 144.655 248.279 164.985 233.855C185.316 219.43 205.854 205.847 222.327 196.07C230.615 191.152 237.452 187.449 242.5 185.101C245.046 183.917 246.688 183.289 247.554 183.013C249.071 182.528 247.124 183.433 243.487 183.175L245.256 158.237L247.026 133.3C240.832 132.86 235.301 134.438 232.34 135.384C228.728 136.537 224.999 138.098 221.416 139.764C214.207 143.117 205.756 147.762 196.809 153.072C178.813 163.752 157.094 178.146 136.052 193.077C115.008 208.008 94.1871 223.797 78.0438 237.348C70.0141 244.089 62.7757 250.581 57.1552 256.334C54.358 259.198 51.634 262.21 49.3284 265.231C47.3812 267.782 44.2039 272.27 42.4755 277.902L66.3753 285.236ZM245.256 158.237L243.484 183.174C241.425 183.028 242.064 182.725 247.524 185.027C251.945 186.89 257.728 189.669 264.609 193.247C278.312 200.372 295.095 209.998 311.669 220.04C328.222 230.07 344.227 240.31 356.352 248.589C362.446 252.75 367.315 256.249 370.703 258.88C372.417 260.211 373.483 261.112 374.042 261.622C375.217 262.694 373.585 261.476 371.92 258.697L393.363 245.845L414.806 232.992C412.356 228.905 409.04 225.868 407.737 224.68C405.818 222.93 403.613 221.13 401.368 219.387C396.836 215.869 391.033 211.725 384.546 207.296C371.507 198.394 354.713 187.659 337.58 177.278C320.468 166.909 302.679 156.687 287.676 148.886C280.203 145 273.1 141.547 266.944 138.952C261.827 136.796 254.2 133.81 247.029 133.3L245.256 158.237ZM393.363 245.845L371.916 258.692C370.809 256.843 370.543 255.704 371.079 257.245C371.403 258.176 371.87 259.654 372.481 261.762C373.694 265.946 375.215 271.706 376.969 278.724C380.465 292.709 384.685 310.855 388.918 329.593C397.373 367.026 405.741 406.214 408.214 417.852L432.668 412.655L457.122 407.458C454.637 395.765 446.216 356.328 437.689 318.577C433.431 299.725 429.112 281.14 425.476 266.597C423.665 259.352 421.971 252.899 420.503 247.837C419.774 245.324 419.034 242.921 418.308 240.83C417.792 239.347 416.632 236.041 414.809 232.997L393.363 245.845ZM432.668 412.655L408.214 417.852C406.894 411.638 409.068 406.718 410.967 404.123L431.139 418.892L451.311 433.66C455.877 427.423 459.381 418.088 457.122 407.459L432.668 412.655ZM431.139 418.892L410.968 404.122C396.953 423.263 385.142 461.181 393.736 514.233L418.414 510.235L443.093 506.238C436.135 463.288 446.889 439.699 451.31 433.661L431.139 418.892ZM418.414 510.235L393.736 514.23C392.022 503.647 398.442 493.415 408.478 490.021C418.727 486.555 430.386 491.04 435.314 500.96L412.925 512.083L390.536 523.206C397.068 536.353 411.76 541.693 424.496 537.386C437.02 533.151 445.382 520.381 443.093 506.24L418.414 510.235ZM412.925 512.083L435.315 500.961C429.332 488.916 419.174 471.387 402.279 461.385C393.147 455.979 382.244 452.884 370.022 453.872C358.113 454.835 346.675 459.527 335.81 466.793L349.707 487.574L363.605 508.356C369.391 504.486 372.76 503.814 374.051 503.71C375.029 503.631 375.718 503.765 376.807 504.41C378.235 505.256 380.361 507.058 382.983 510.532C385.57 513.959 388.077 518.256 390.535 523.205L412.925 512.083ZM349.707 487.574L335.811 466.792C338.435 465.038 341.342 464.755 343.749 465.355C346.247 465.979 349.325 467.882 351.022 471.523L328.363 482.085L305.703 492.647C316.466 515.735 344.824 520.914 363.604 508.356L349.707 487.574ZM328.363 482.085L351.022 471.523C347.575 464.128 343.007 455.826 336.98 448.469C331.011 441.184 322.464 433.432 310.768 429.554C284.231 420.753 259.904 436.141 239.928 459.804L259.032 475.931L278.135 492.057C285.961 482.786 291.382 479.065 294.224 477.724C296.4 476.697 296.175 477.392 295.03 477.012C294.632 476.88 295.849 477.162 298.304 480.158C300.7 483.083 303.215 487.308 305.703 492.647L328.363 482.085ZM259.032 475.931L239.928 459.804C243.587 455.471 250.237 454.65 254.929 458.619L238.782 477.705L222.634 496.791C239.402 510.976 264.273 508.477 278.135 492.057L259.032 475.931ZM238.782 477.705L254.93 458.62C241.284 447.074 222.256 434.384 197.357 436.73C173.377 438.99 151.208 454.557 128.674 479.382L147.185 496.185L165.696 512.988C185.617 491.041 196.977 486.987 202.048 486.51C206.199 486.119 211.741 487.574 222.633 496.79L238.782 477.705ZM147.185 496.185L128.675 479.381C131.552 476.211 136.207 475.135 140.345 477.027L129.949 499.763L119.552 522.498C135.457 529.771 154.121 525.739 165.695 512.988L147.185 496.185ZM129.949 499.763L140.346 477.028C123.388 469.272 102.737 461.796 81.0311 464.373C57.498 467.167 37.9711 480.944 22.0987 504.363L42.7933 518.389L63.488 532.415C73.5305 517.598 81.4343 514.676 86.9266 514.024C94.2464 513.155 104.216 515.484 119.551 522.498L129.949 499.763ZM42.7933 518.389L22.0989 504.362C25.0393 500.024 34.6652 491.922 47.7606 497.268C54.2233 499.906 58.9618 505.302 60.8806 511.645C62.7001 517.66 61.5184 522.668 60.4175 525.401L37.2279 516.061L14.0383 506.72C12.0323 511.701 10.754 518.624 13.0225 526.123C15.3904 533.951 21.1237 540.4 28.8642 543.56C44.5152 549.949 57.8289 540.764 63.4878 532.415L42.7933 518.389ZM37.2279 516.061L60.4169 525.402C70.2893 500.896 84.1402 468.176 91.0017 428.936L66.3753 424.63L41.749 420.324C35.9516 453.478 24.2867 481.281 14.0389 506.719L37.2279 516.061ZM66.3753 424.63L91.0017 428.936C96.0013 400.343 94.1054 367.717 92.2356 341.993C91.2556 328.511 90.2947 317.216 89.926 307.674C89.7451 302.991 89.7338 299.273 89.8859 296.402C90.0494 293.316 90.3535 292.316 90.2757 292.569L66.3753 285.236L42.475 277.903C39.4829 287.655 39.5868 299.86 39.9633 309.604C40.3756 320.274 41.4582 333.113 42.3672 345.618C44.2756 371.872 45.5405 398.64 41.749 420.324L66.3753 424.63ZM172.458 160.979L147.463 161.444C147.363 156.074 149.807 150.971 154.058 147.682L169.355 167.456L184.651 187.23C192.902 180.847 197.648 170.941 197.454 160.515L172.458 160.979ZM169.355 167.456L154.059 147.682L138.443 159.761L153.74 179.535L169.036 199.309L184.651 187.23L169.355 167.456ZM153.74 179.535L138.444 159.76C145.707 154.142 156.12 155.307 161.962 162.394L142.671 178.296L123.38 194.197C134.72 207.955 154.936 210.216 169.035 199.31L153.74 179.535ZM142.671 178.296L161.962 162.395L136.723 131.775L117.432 147.676L98.1407 163.577L123.38 194.197L142.671 178.296ZM117.432 147.676L136.723 131.774C135.287 130.033 135.197 127.545 136.501 125.703L116.101 111.252L95.7008 96.8009C81.3501 117.059 82.3503 144.421 98.1409 163.577L117.432 147.676ZM116.101 111.252L136.501 125.703L190.517 49.4511L170.117 35L149.716 20.5489L95.7008 96.8008L116.101 111.252ZM170.117 35L145.121 35.4646L147.463 161.444L172.458 160.979L197.454 160.515L195.112 34.5354L170.117 35Z" fill="#2E2D3C" mask="url(#path-1-outside-1_14_60)"/>
<path d="M170.117 35L116.101 111.252C108.273 122.302 108.819 137.226 117.432 147.675L142.672 178.296C145.421 181.63 150.321 182.179 153.74 179.535L169.355 167.457C171.355 165.909 172.506 163.508 172.459 160.98L170.117 35Z" fill="#C990F7"/>
<mask id="mask0_14_60" style="mask-type:alpha" maskUnits="userSpaceOnUse" x="36" y="158" width="397" height="363">
<path fill-rule="evenodd" clip-rule="evenodd" d="M245.256 158.237C265.705 159.69 387.085 235.372 393.362 245.844C399.088 255.4 427.71 389.325 432.668 412.655C433.138 414.863 432.472 417.071 431.139 418.892C421.921 431.481 410.638 462.235 418.414 510.236C418.99 513.793 414.528 515.311 412.925 512.083C401.56 489.204 383.01 465.304 349.707 487.574C342.457 492.422 332.048 489.991 328.363 482.085C316.492 456.617 295.442 432.798 259.032 475.931C253.93 481.974 244.819 482.813 238.781 477.705C214.243 456.943 189.641 449.413 147.185 496.184C142.837 500.975 135.832 502.453 129.948 499.762C97.6542 484.993 68.7084 480.153 42.7934 518.389C40.0751 522.4 35.4174 520.555 37.2275 516.061C47.2878 491.089 60.0461 460.827 66.3755 424.63C75.1666 374.353 60.0536 305.84 66.3753 285.236C72.6985 264.632 224.806 156.786 245.256 158.237ZM243.231 309.371C241.289 272.303 216.561 242.635 195.908 243.83C175.256 245.025 150.868 275.19 152.809 312.257C154.751 349.325 174.858 369.598 204.59 367.878C234.322 366.158 245.173 346.439 243.231 309.371ZM333.257 257.237C312.385 248.737 303.545 279.331 305.756 299.237C308.701 325.737 321.257 351.441 343.756 359.737C366.256 368.032 376.698 342.775 371.256 317.237C365.814 291.699 360.574 268.362 333.257 257.237Z" fill="#FF0000"/>
</mask>
<g mask="url(#mask0_14_60)">
<rect x="-39.7455" y="152.737" width="560" height="383" fill="url(#paint0_linear_14_60)"/>
<g filter="url(#filter0_f_14_60)">
<path d="M139.754 444.737L104.254 470.237L407.255 470.237L435.961 415.343L282.255 370.737L139.754 444.737Z" fill="url(#paint1_linear_14_60)" fill-opacity="0.54"/>
</g>
<g filter="url(#filter1_f_14_60)">
<path d="M241.254 129.737L486.834 150.727L434.938 429.752L283.254 368.237L241.254 129.737Z" fill="#F9F8FE" fill-opacity="0.48"/>
</g>
</g>
<path d="M597.693 447.02C588.938 447.02 580.273 445.652 571.7 442.916C563.127 440.18 555.74 435.528 549.538 428.962L558.567 396.128C562.762 403.242 568.143 408.897 574.71 413.092C581.459 417.105 589.029 419.112 597.42 419.112C607.087 419.112 615.478 415.737 622.592 408.988C629.706 402.239 633.263 390.474 633.263 373.692V197.487H664.454V376.155C664.454 392.389 661.353 405.796 655.152 416.376C648.95 426.773 640.741 434.525 630.527 439.633C620.494 444.558 609.55 447.02 597.693 447.02ZM783.42 447.02C767.551 447.02 753.05 443.189 739.916 435.528C726.783 427.867 716.295 417.561 708.451 404.61C700.79 391.659 696.959 377.34 696.959 361.653C696.959 345.784 700.79 331.465 708.451 318.696C716.295 305.745 726.783 295.439 739.916 287.778C753.05 280.117 767.551 276.287 783.42 276.287C799.472 276.287 813.974 280.117 826.925 287.778C840.058 295.439 850.455 305.745 858.116 318.696C865.96 331.465 869.882 345.784 869.882 361.653C869.882 377.34 865.96 391.659 858.116 404.61C850.455 417.561 840.058 427.867 826.925 435.528C813.974 443.189 799.472 447.02 783.42 447.02ZM783.42 419.112C794 419.112 803.577 416.558 812.15 411.451C820.723 406.161 827.563 399.229 832.67 390.656C837.778 381.901 840.332 372.233 840.332 361.653C840.332 351.074 837.778 341.497 832.67 332.924C827.563 324.169 820.723 317.237 812.15 312.13C803.577 306.84 794 304.195 783.42 304.195C772.841 304.195 763.264 306.84 754.691 312.13C746.118 317.237 739.278 324.169 734.17 332.924C729.063 341.497 726.509 351.074 726.509 361.653C726.509 372.233 729.063 381.901 734.17 390.656C739.278 399.229 746.118 406.161 754.691 411.451C763.264 416.558 772.841 419.112 783.42 419.112ZM734.991 241.812V218.828H831.85V241.812H734.991ZM910.09 443.737V304.195H872.879V279.57H910.911V224.848H938.82V279.57H979.588V304.195H939.64V443.737H910.09ZM1064.48 445.926C1049.52 445.926 1035.84 442.186 1023.44 434.708C1011.04 427.046 1001.09 416.832 993.615 404.063C986.319 391.295 982.671 377.158 982.671 361.653C982.671 346.149 986.319 332.012 993.615 319.244C1001.09 306.475 1011.04 296.352 1023.44 288.873C1035.84 281.212 1049.52 277.381 1064.48 277.381C1075.79 277.381 1086.37 279.479 1096.22 283.674C1106.25 287.87 1114.92 293.707 1122.21 301.185V279.57H1149.57V443.737H1122.21V422.121C1114.92 429.418 1106.25 435.255 1096.22 439.633C1086.37 443.828 1075.79 445.926 1064.48 445.926ZM1068.31 419.112C1078.71 419.112 1088.1 416.558 1096.49 411.451C1105.07 406.161 1111.82 399.229 1116.74 390.656C1121.85 381.901 1124.4 372.233 1124.4 361.653C1124.4 351.074 1121.85 341.497 1116.74 332.924C1111.82 324.169 1105.07 317.237 1096.49 312.13C1088.1 306.84 1078.71 304.195 1068.31 304.195C1057.91 304.195 1048.43 306.84 1039.86 312.13C1031.46 317.237 1024.72 324.169 1019.61 332.924C1014.68 341.497 1012.22 351.074 1012.22 361.653C1012.22 372.233 1014.68 381.901 1019.61 390.656C1024.72 399.229 1031.46 406.161 1039.86 411.451C1048.43 416.558 1057.91 419.112 1068.31 419.112ZM1190.12 443.737V279.57H1219.67V443.737H1190.12ZM1204.89 250.02C1199.42 250.02 1194.77 248.105 1190.94 244.274C1187.11 240.444 1185.19 235.792 1185.19 230.32C1185.19 224.665 1187.11 220.014 1190.94 216.366C1194.77 212.535 1199.42 210.62 1204.89 210.62C1210.55 210.62 1215.2 212.535 1218.85 216.366C1222.68 220.014 1224.59 224.665 1224.59 230.32C1224.59 235.792 1222.68 240.444 1218.85 244.274C1215.2 248.105 1210.55 250.02 1204.89 250.02Z" fill="#2E2D3C"/>
<path d="M1378.72 448.662C1360.85 448.662 1344.16 445.378 1328.65 438.812C1313.15 432.063 1299.47 422.851 1287.61 411.177C1275.94 399.32 1266.82 385.731 1260.25 370.409C1253.68 354.904 1250.4 338.305 1250.4 320.612C1250.4 302.918 1253.68 286.41 1260.25 271.088C1267 255.583 1276.21 241.994 1287.89 230.32C1299.74 218.464 1313.42 209.252 1328.93 202.685C1344.43 195.936 1361.12 192.562 1379 192.562C1396.51 192.562 1412.93 195.845 1428.25 202.412C1443.57 208.796 1457.07 217.643 1468.74 228.952L1459.71 266.71C1451.32 253.212 1440.01 242.45 1425.79 234.424C1411.74 226.216 1396.14 222.112 1379 222.112C1360.94 222.112 1344.61 226.581 1330.02 235.519C1315.61 244.274 1304.12 256.131 1295.55 271.088C1286.97 285.863 1282.69 302.371 1282.69 320.612C1282.69 338.488 1286.88 354.904 1295.27 369.862C1303.85 384.819 1315.34 396.767 1329.75 405.705C1344.34 414.643 1360.67 419.112 1378.72 419.112C1388.94 419.112 1398.61 417.926 1407.73 415.555C1417.03 413.001 1425.51 409.444 1433.17 404.884V340.312H1365.32V312.403H1463.27V420.753C1452.14 430.056 1439.19 437.079 1424.42 441.821C1409.83 446.382 1394.59 448.662 1378.72 448.662ZM1513.66 443.737V197.487H1574.68C1590.91 197.487 1604.59 199.949 1615.72 204.874C1627.03 209.799 1636.15 216.275 1643.08 224.301C1650.01 232.144 1655.03 240.717 1658.13 250.02C1661.41 259.323 1663.05 268.443 1663.05 277.381C1663.05 286.137 1661.5 295.166 1658.4 304.469C1655.3 313.771 1650.29 322.436 1643.35 330.462C1636.42 338.488 1627.3 344.963 1615.99 349.888C1604.68 354.813 1590.91 357.276 1574.68 357.276H1544.85V443.737H1513.66ZM1544.85 329.367H1573.04C1587.81 329.367 1599.49 326.814 1608.06 321.706C1616.63 316.416 1622.74 309.85 1626.39 302.006C1630.04 293.98 1631.86 285.772 1631.86 277.381C1631.86 269.355 1630.04 261.329 1626.39 253.303C1622.92 245.277 1616.91 238.62 1608.33 233.33C1599.94 228.04 1588.18 225.395 1573.04 225.395H1544.85V329.367ZM1773.81 447.02C1758.31 447.02 1744.54 443.645 1732.5 436.896C1720.46 429.965 1710.97 420.48 1704.04 408.441C1697.29 396.22 1693.92 382.174 1693.92 366.305V197.487H1725.11V365.21C1725.11 381.445 1729.76 394.487 1739.06 404.337C1748.37 414.187 1760.13 419.112 1774.36 419.112C1788.4 419.112 1800.08 414.278 1809.38 404.61C1818.87 394.76 1823.61 381.992 1823.61 366.305V197.487H1853.71V365.21C1853.71 381.262 1850.24 395.49 1843.31 407.894C1836.56 420.115 1827.17 429.691 1815.13 436.623C1803.27 443.554 1789.5 447.02 1773.81 447.02Z" fill="url(#paint2_linear_14_60)"/>
<defs>
<filter id="filter0_f_14_60" x="97.9544" y="364.437" width="344.306" height="112.1" filterUnits="userSpaceOnUse" color-interpolation-filters="sRGB">
<feFlood flood-opacity="0" result="BackgroundImageFix"/>
<feBlend mode="normal" in="SourceGraphic" in2="BackgroundImageFix" result="shape"/>
<feGaussianBlur stdDeviation="3.15" result="effect1_foregroundBlur_14_60"/>
</filter>
<filter id="filter1_f_14_60" x="234.954" y="123.437" width="258.18" height="312.615" filterUnits="userSpaceOnUse" color-interpolation-filters="sRGB">
<feFlood flood-opacity="0" result="BackgroundImageFix"/>
<feBlend mode="normal" in="SourceGraphic" in2="BackgroundImageFix" result="shape"/>
<feGaussianBlur stdDeviation="3.15" result="effect1_foregroundBlur_14_60"/>
</filter>
<linearGradient id="paint0_linear_14_60" x1="240.255" y1="152.737" x2="262.255" y2="535.737" gradientUnits="userSpaceOnUse">
<stop stop-color="white"/>
<stop offset="0.807692" stop-color="#CDCBFF"/>
<stop offset="1" stop-color="#F2F2FF"/>
</linearGradient>
<linearGradient id="paint1_linear_14_60" x1="225.806" y1="381.838" x2="229.724" y2="466.74" gradientUnits="userSpaceOnUse">
<stop stop-color="#BBB7F9"/>
<stop offset="1" stop-color="#BBB7F9" stop-opacity="0"/>
</linearGradient>
<linearGradient id="paint2_linear_14_60" x1="1215" y1="179.5" x2="1215" y2="444" gradientUnits="userSpaceOnUse">
<stop stop-color="#C990F7"/>
<stop offset="1" stop-color="#605BFF"/>
</linearGradient>
</defs>
</svg>
