<svg height="100" viewBox="0 0 1885 584" fill="none" xmlns="http://www.w3.org/2000/svg">
<path d="M170.371 34.6866L116.355 110.939C108.528 121.989 109.073 136.913 117.686 147.362L142.926 177.982C145.675 181.317 150.576 181.866 153.994 179.222L169.609 167.143C171.609 165.596 172.76 163.195 172.713 160.667L170.371 34.6866Z" fill="#C990F7"/>
<mask id="mask0_14_50" style="mask-type:alpha" maskUnits="userSpaceOnUse" x="37" y="157" width="397" height="364">
<path fill-rule="evenodd" clip-rule="evenodd" d="M245.511 157.923C265.96 159.376 387.34 235.059 393.617 245.531C399.343 255.087 427.965 389.011 432.923 412.342C433.392 414.55 432.727 416.757 431.393 418.578C422.175 431.168 410.893 461.922 418.669 509.922C419.245 513.48 414.783 514.997 413.179 511.769C401.815 488.89 383.265 464.99 349.962 487.261C342.712 492.109 332.302 489.677 328.617 481.772C316.746 456.304 295.697 432.485 259.286 475.617C254.185 481.661 245.073 482.5 239.036 477.391C214.498 456.629 189.895 449.1 147.44 495.871C143.091 500.661 136.086 502.14 130.203 499.449C97.9087 484.679 68.9629 479.839 43.0479 518.075C40.3296 522.086 35.6719 520.242 37.482 515.748C47.5423 490.775 60.3006 460.514 66.63 424.316C75.4211 374.04 60.3081 305.527 66.6298 284.923C72.953 264.318 225.061 156.472 245.511 157.923ZM243.485 309.057C241.544 271.989 216.816 242.322 196.163 243.517C175.51 244.712 151.122 274.876 153.064 311.944C155.005 349.012 175.112 369.284 204.844 367.564C234.577 365.844 245.427 346.125 243.485 309.057ZM333.511 256.924C312.64 248.424 303.799 279.018 306.011 298.924C308.955 325.424 321.511 351.128 344.011 359.423C366.511 367.719 376.952 342.462 371.511 316.924C366.069 291.385 360.828 268.049 333.511 256.924Z" fill="#FF0000"/>
</mask>
<g mask="url(#mask0_14_50)">
<rect x="-39.491" y="152.423" width="560" height="383" fill="url(#paint0_linear_14_50)"/>
<g filter="url(#filter0_f_14_50)">
<path d="M140.009 444.423L104.509 469.923L407.509 469.923L436.215 415.03L282.509 370.423L140.009 444.423Z" fill="url(#paint1_linear_14_50)" fill-opacity="0.54"/>
</g>
<g filter="url(#filter1_f_14_50)">
<path d="M241.509 129.423L487.089 150.414L435.192 429.438L283.509 367.923L241.509 129.423Z" fill="#F9F8FE" fill-opacity="0.48"/>
</g>
</g>
<path d="M597.948 446.707C589.192 446.707 580.528 445.339 571.955 442.602C563.382 439.866 555.994 435.215 549.792 428.648L558.822 395.815C563.017 402.929 568.398 408.583 574.965 412.779C581.714 416.792 589.284 418.798 597.674 418.798C607.342 418.798 615.733 415.424 622.847 408.675C629.96 401.926 633.517 390.16 633.517 373.379V197.173H664.709V375.841C664.709 392.076 661.608 405.483 655.406 416.062C649.204 426.459 640.996 434.212 630.781 439.319C620.749 444.244 609.804 446.707 597.948 446.707ZM783.675 446.707C767.806 446.707 753.304 442.876 740.171 435.215C727.038 427.554 716.549 417.248 708.706 404.297C701.045 391.346 697.214 377.027 697.214 361.34C697.214 345.471 701.045 331.152 708.706 318.383C716.549 305.432 727.038 295.126 740.171 287.465C753.304 279.804 767.806 275.973 783.675 275.973C799.727 275.973 814.228 279.804 827.179 287.465C840.313 295.126 850.71 305.432 858.371 318.383C866.214 331.152 870.136 345.471 870.136 361.34C870.136 377.027 866.214 391.346 858.371 404.297C850.71 417.248 840.313 427.554 827.179 435.215C814.228 442.876 799.727 446.707 783.675 446.707ZM783.675 418.798C794.255 418.798 803.831 416.245 812.404 411.137C820.977 405.847 827.818 398.916 832.925 390.343C838.033 381.587 840.586 371.92 840.586 361.34C840.586 350.76 838.033 341.184 832.925 332.611C827.818 323.855 820.977 316.924 812.404 311.816C803.831 306.527 794.255 303.882 783.675 303.882C773.096 303.882 763.519 306.527 754.946 311.816C746.373 316.924 739.533 323.855 734.425 332.611C729.318 341.184 726.764 350.76 726.764 361.34C726.764 371.92 729.318 381.587 734.425 390.343C739.533 398.916 746.373 405.847 754.946 411.137C763.519 416.245 773.096 418.798 783.675 418.798ZM735.246 241.498V218.515H832.104V241.498H735.246ZM910.345 443.423V303.882H873.134V279.257H911.166V224.534H939.074V279.257H979.842V303.882H939.895V443.423H910.345ZM1064.74 445.612C1049.78 445.612 1036.1 441.873 1023.69 434.394C1011.29 426.733 1001.35 416.518 993.87 403.75C986.574 390.981 982.926 376.845 982.926 361.34C982.926 345.835 986.574 331.699 993.87 318.93C1001.35 306.162 1011.29 296.038 1023.69 288.559C1036.1 280.898 1049.78 277.068 1064.74 277.068C1076.04 277.068 1086.62 279.165 1096.47 283.361C1106.51 287.556 1115.17 293.393 1122.47 300.872V279.257H1149.83V443.423H1122.47V421.808C1115.17 429.104 1106.51 434.941 1096.47 439.319C1086.62 443.515 1076.04 445.612 1064.74 445.612ZM1068.57 418.798C1078.96 418.798 1088.36 416.245 1096.75 411.137C1105.32 405.847 1112.07 398.916 1117 390.343C1122.1 381.587 1124.66 371.92 1124.66 361.34C1124.66 350.76 1122.1 341.184 1117 332.611C1112.07 323.855 1105.32 316.924 1096.75 311.816C1088.36 306.527 1078.96 303.882 1068.57 303.882C1058.17 303.882 1048.68 306.527 1040.11 311.816C1031.72 316.924 1024.97 323.855 1019.86 332.611C1014.94 341.184 1012.48 350.76 1012.48 361.34C1012.48 371.92 1014.94 381.587 1019.86 390.343C1024.97 398.916 1031.72 405.847 1040.11 411.137C1048.68 416.245 1058.17 418.798 1068.57 418.798ZM1190.37 443.423V279.257H1219.92V443.423H1190.37ZM1205.15 249.707C1199.67 249.707 1195.02 247.791 1191.19 243.961C1187.36 240.13 1185.45 235.479 1185.45 230.007C1185.45 224.352 1187.36 219.701 1191.19 216.052C1195.02 212.222 1199.67 210.307 1205.15 210.307C1210.8 210.307 1215.45 212.222 1219.1 216.052C1222.93 219.701 1224.85 224.352 1224.85 230.007C1224.85 235.479 1222.93 240.13 1219.1 243.961C1215.45 247.791 1210.8 249.707 1205.15 249.707Z" fill="white"/>
<path d="M1378.98 448.348C1361.1 448.348 1344.41 445.065 1328.91 438.498C1313.4 431.749 1299.72 422.538 1287.87 410.864C1276.19 399.007 1267.07 385.418 1260.51 370.096C1253.94 354.591 1250.66 337.992 1250.66 320.298C1250.66 302.605 1253.94 286.097 1260.51 270.775C1267.25 255.27 1276.47 241.681 1288.14 230.007C1300 218.15 1313.68 208.939 1329.18 202.372C1344.69 195.623 1361.38 192.248 1379.25 192.248C1396.76 192.248 1413.18 195.532 1428.5 202.098C1443.83 208.483 1457.32 217.329 1469 228.639L1459.97 266.397C1451.58 252.899 1440.27 242.137 1426.04 234.111C1412 225.902 1396.4 221.798 1379.25 221.798C1361.19 221.798 1344.87 226.267 1330.28 235.205C1315.87 243.961 1304.37 255.817 1295.8 270.775C1287.23 285.55 1282.94 302.058 1282.94 320.298C1282.94 338.174 1287.14 354.591 1295.53 369.548C1304.1 384.506 1315.59 396.453 1330 405.391C1344.6 414.329 1360.92 418.798 1378.98 418.798C1389.19 418.798 1398.86 417.613 1407.98 415.241C1417.28 412.688 1425.77 409.131 1433.43 404.571V339.998H1365.57V312.09H1463.53V420.44C1452.4 429.743 1439.45 436.765 1424.67 441.508C1410.08 446.068 1394.85 448.348 1378.98 448.348ZM1513.92 443.423V197.173H1574.93C1591.17 197.173 1604.85 199.636 1615.97 204.561C1627.28 209.486 1636.4 215.961 1643.34 223.987C1650.27 231.831 1655.28 240.404 1658.38 249.707C1661.67 259.009 1663.31 268.13 1663.31 277.068C1663.31 285.823 1661.76 294.852 1658.66 304.155C1655.56 313.458 1650.54 322.122 1643.61 330.148C1636.68 338.174 1627.56 344.65 1616.25 349.575C1604.94 354.5 1591.17 356.962 1574.93 356.962H1545.11V443.423H1513.92ZM1545.11 329.054H1573.29C1588.07 329.054 1599.74 326.5 1608.31 321.393C1616.89 316.103 1623 309.536 1626.65 301.693C1630.29 293.667 1632.12 285.458 1632.12 277.068C1632.12 269.042 1630.29 261.016 1626.65 252.99C1623.18 244.964 1617.16 238.306 1608.59 233.016C1600.2 227.727 1588.43 225.082 1573.29 225.082H1545.11V329.054ZM1774.07 446.707C1758.56 446.707 1744.79 443.332 1732.75 436.583C1720.71 429.652 1711.23 420.166 1704.3 408.127C1697.55 395.906 1694.17 381.861 1694.17 365.991V197.173H1725.36V364.897C1725.36 381.131 1730.02 394.173 1739.32 404.023C1748.62 413.873 1760.39 418.798 1774.61 418.798C1788.66 418.798 1800.33 413.965 1809.64 404.297C1819.12 394.447 1823.86 381.678 1823.86 365.991V197.173H1853.96V364.897C1853.96 380.949 1850.5 395.177 1843.56 407.58C1836.82 419.802 1827.42 429.378 1815.38 436.309C1803.53 443.241 1789.75 446.707 1774.07 446.707Z" fill="url(#paint2_linear_14_50)"/>
<defs>
<filter id="filter0_f_14_50" x="98.2089" y="364.123" width="344.306" height="112.1" filterUnits="userSpaceOnUse" color-interpolation-filters="sRGB">
<feFlood flood-opacity="0" result="BackgroundImageFix"/>
<feBlend mode="normal" in="SourceGraphic" in2="BackgroundImageFix" result="shape"/>
<feGaussianBlur stdDeviation="3.15" result="effect1_foregroundBlur_14_50"/>
</filter>
<filter id="filter1_f_14_50" x="235.209" y="123.123" width="258.18" height="312.615" filterUnits="userSpaceOnUse" color-interpolation-filters="sRGB">
<feFlood flood-opacity="0" result="BackgroundImageFix"/>
<feBlend mode="normal" in="SourceGraphic" in2="BackgroundImageFix" result="shape"/>
<feGaussianBlur stdDeviation="3.15" result="effect1_foregroundBlur_14_50"/>
</filter>
<linearGradient id="paint0_linear_14_50" x1="240.509" y1="152.423" x2="262.509" y2="535.423" gradientUnits="userSpaceOnUse">
<stop stop-color="white"/>
<stop offset="0.807692" stop-color="#CDCBFF"/>
<stop offset="1" stop-color="#F2F2FF"/>
</linearGradient>
<linearGradient id="paint1_linear_14_50" x1="226.061" y1="381.525" x2="229.978" y2="466.427" gradientUnits="userSpaceOnUse">
<stop stop-color="#BBB7F9"/>
<stop offset="1" stop-color="#BBB7F9" stop-opacity="0"/>
</linearGradient>
<linearGradient id="paint2_linear_14_50" x1="1216.02" y1="243.923" x2="1216.02" y2="541.423" gradientUnits="userSpaceOnUse">
<stop stop-color="#C990F7"/>
<stop offset="1" stop-color="#605BFF"/>
</linearGradient>
</defs>
</svg>
