<svg width="584" height="584" viewBox="0 0 584 584" fill="none" xmlns="http://www.w3.org/2000/svg">
<mask id="path-1-outside-1_14_118" maskUnits="userSpaceOnUse" x="70.821" y="19" width="448" height="537" fill="black">
<rect fill="white" x="70.821" y="19" width="448" height="537"/>
<path d="M126.375 295.236C132.699 274.631 284.807 166.786 305.256 168.237C325.706 169.691 447.086 245.372 453.363 255.845C459.089 265.404 487.71 399.324 492.668 422.655C493.137 424.863 492.472 427.071 491.139 428.892C481.921 441.481 470.638 472.235 478.414 520.235C478.99 523.793 474.529 525.311 472.925 522.083C461.561 499.204 443.01 475.304 409.707 497.574C402.457 502.422 392.048 499.99 388.363 492.085C376.491 466.617 355.442 442.798 319.032 485.931C313.93 491.974 304.819 492.813 298.782 487.705C274.244 466.943 249.64 459.414 207.185 506.185C202.837 510.975 195.832 512.453 189.949 509.763C157.655 494.993 128.708 490.153 102.793 528.389C100.075 532.399 95.4178 530.555 97.2279 526.061C107.288 501.089 120.046 470.827 126.375 434.63C135.166 384.354 120.054 315.84 126.375 295.236ZM232.458 170.979C232.505 173.507 231.355 175.909 229.355 177.456L213.74 189.535C210.321 192.179 205.42 191.631 202.671 188.296L177.432 157.676C168.819 147.227 168.273 132.302 176.101 121.252L230.117 45L232.458 170.979Z"/>
</mask>
<path d="M126.375 295.236C132.699 274.631 284.807 166.786 305.256 168.237C325.706 169.691 447.086 245.372 453.363 255.845C459.089 265.404 487.71 399.324 492.668 422.655C493.137 424.863 492.472 427.071 491.139 428.892C481.921 441.481 470.638 472.235 478.414 520.235C478.99 523.793 474.529 525.311 472.925 522.083C461.561 499.204 443.01 475.304 409.707 497.574C402.457 502.422 392.048 499.99 388.363 492.085C376.491 466.617 355.442 442.798 319.032 485.931C313.93 491.974 304.819 492.813 298.782 487.705C274.244 466.943 249.64 459.414 207.185 506.185C202.837 510.975 195.832 512.453 189.949 509.763C157.655 494.993 128.708 490.153 102.793 528.389C100.075 532.399 95.4178 530.555 97.2279 526.061C107.288 501.089 120.046 470.827 126.375 434.63C135.166 384.354 120.054 315.84 126.375 295.236ZM232.458 170.979C232.505 173.507 231.355 175.909 229.355 177.456L213.74 189.535C210.321 192.179 205.42 191.631 202.671 188.296L177.432 157.676C168.819 147.227 168.273 132.302 176.101 121.252L230.117 45L232.458 170.979Z" fill="#2E2D3C"/>
<path d="M126.375 295.236L102.476 287.902L102.475 287.903L126.375 295.236ZM305.256 168.237L307.029 143.3L307.026 143.3L305.256 168.237ZM453.363 255.845L474.809 242.997L474.806 242.992L453.363 255.845ZM492.668 422.655L517.122 417.459L517.122 417.458L492.668 422.655ZM491.139 428.892L511.31 443.661L511.311 443.66L491.139 428.892ZM478.414 520.235L503.093 516.24L503.093 516.238L478.414 520.235ZM472.925 522.083L450.535 533.205L450.536 533.206L472.925 522.083ZM409.707 497.574L423.604 518.356L423.605 518.356L409.707 497.574ZM388.363 492.085L365.703 502.647L365.704 502.647L388.363 492.085ZM319.032 485.931L338.135 502.057L338.135 502.057L319.032 485.931ZM298.782 487.705L282.633 506.79L282.634 506.791L298.782 487.705ZM207.185 506.185L225.695 522.988L225.696 522.988L207.185 506.185ZM189.949 509.763L179.551 532.498L179.552 532.498L189.949 509.763ZM102.793 528.389L123.488 542.415L123.488 542.415L102.793 528.389ZM97.2279 526.061L74.0389 516.719L74.0383 516.72L97.2279 526.061ZM126.375 434.63L151.002 438.936L151.002 438.936L126.375 434.63ZM232.458 170.979L207.463 171.444L207.463 171.444L232.458 170.979ZM229.355 177.456L244.651 197.23L244.651 197.23L229.355 177.456ZM213.74 189.535L229.035 209.31L229.036 209.309L213.74 189.535ZM202.671 188.296L183.38 204.197L183.38 204.197L202.671 188.296ZM177.432 157.676L196.723 141.775L196.723 141.774L177.432 157.676ZM176.101 121.252L155.701 106.801L155.701 106.801L176.101 121.252ZM230.117 45L255.112 44.5354C254.912 33.737 247.799 24.2883 237.478 21.1083C227.156 17.9282 215.96 21.7358 209.716 30.5489L230.117 45ZM126.375 295.236L150.275 302.571C149.337 305.627 148.089 306.858 149.075 305.566C149.702 304.744 150.915 303.328 152.922 301.274C156.91 297.191 162.752 291.889 170.191 285.644C184.986 273.225 204.655 258.279 224.985 243.855C245.316 229.43 265.854 215.847 282.327 206.07C290.615 201.152 297.452 197.449 302.501 195.101C305.046 193.917 306.688 193.289 307.554 193.013C309.071 192.528 307.124 193.433 303.487 193.175L305.256 168.237L307.026 143.3C300.832 142.86 295.301 144.438 292.34 145.384C288.728 146.537 284.999 148.098 281.416 149.764C274.207 153.117 265.756 157.762 256.809 163.072C238.813 173.752 217.094 188.146 196.052 203.077C175.008 218.008 154.187 233.797 138.044 247.348C130.014 254.089 122.776 260.581 117.155 266.334C114.358 269.198 111.634 272.21 109.328 275.231C107.381 277.782 104.204 282.27 102.476 287.902L126.375 295.236ZM305.256 168.237L303.484 193.174C301.425 193.028 302.064 192.725 307.524 195.027C311.945 196.89 317.728 199.669 324.609 203.247C338.312 210.372 355.095 219.998 371.669 230.04C388.222 240.07 404.227 250.31 416.352 258.589C422.446 262.75 427.315 266.249 430.703 268.88C432.417 270.211 433.483 271.112 434.042 271.622C435.217 272.694 433.585 271.476 431.92 268.697L453.363 255.845L474.806 242.992C472.356 238.905 469.04 235.868 467.737 234.68C465.818 232.93 463.613 231.13 461.368 229.387C456.836 225.869 451.033 221.725 444.546 217.296C431.507 208.394 414.713 197.659 397.58 187.278C380.468 176.909 362.679 166.687 347.676 158.886C340.203 155 333.1 151.547 326.944 148.952C321.827 146.796 314.2 143.81 307.029 143.3L305.256 168.237ZM453.363 255.845L431.916 268.692C430.809 266.843 430.543 265.704 431.079 267.245C431.403 268.176 431.87 269.654 432.481 271.762C433.694 275.946 435.215 281.706 436.969 288.724C440.465 302.709 444.685 320.855 448.918 339.593C457.373 377.026 465.741 416.214 468.214 427.852L492.668 422.655L517.122 417.458C514.637 405.765 506.216 366.328 497.689 328.577C493.431 309.725 489.112 291.14 485.476 276.597C483.665 269.352 481.971 262.899 480.503 257.837C479.774 255.324 479.035 252.921 478.308 250.83C477.792 249.347 476.632 246.041 474.809 242.997L453.363 255.845ZM492.668 422.655L468.214 427.852C466.894 421.638 469.068 416.718 470.967 414.123L491.139 428.892L511.311 443.66C515.877 437.423 519.381 428.088 517.122 417.459L492.668 422.655ZM491.139 428.892L470.968 414.122C456.953 433.263 445.142 471.181 453.736 524.233L478.414 520.235L503.093 516.238C496.135 473.288 506.889 449.699 511.31 443.661L491.139 428.892ZM478.414 520.235L453.736 524.23C452.023 513.647 458.442 503.415 468.478 500.021C478.727 496.555 490.386 501.04 495.314 510.96L472.925 522.083L450.536 533.206C457.068 546.353 471.76 551.693 484.496 547.386C497.02 543.151 505.382 530.381 503.093 516.24L478.414 520.235ZM472.925 522.083L495.315 510.961C489.332 498.916 479.174 481.387 462.279 471.385C453.147 465.979 442.244 462.884 430.022 463.872C418.113 464.835 406.675 469.527 395.81 476.793L409.707 497.574L423.605 518.356C429.391 514.486 432.761 513.814 434.051 513.71C435.029 513.631 435.718 513.765 436.807 514.41C438.235 515.256 440.361 517.058 442.983 520.532C445.57 523.959 448.077 528.256 450.535 533.205L472.925 522.083ZM409.707 497.574L395.811 476.792C398.435 475.038 401.343 474.755 403.749 475.355C406.247 475.979 409.325 477.882 411.022 481.523L388.363 492.085L365.704 502.647C376.466 525.735 404.824 530.914 423.604 518.356L409.707 497.574ZM388.363 492.085L411.022 481.523C407.575 474.128 403.007 465.826 396.98 458.469C391.011 451.184 382.464 443.432 370.768 439.554C344.231 430.753 319.904 446.141 299.928 469.804L319.032 485.931L338.135 502.057C345.961 492.786 351.382 489.065 354.224 487.724C356.4 486.697 356.175 487.392 355.03 487.012C354.632 486.88 355.849 487.162 358.304 490.158C360.7 493.083 363.215 497.308 365.703 502.647L388.363 492.085ZM319.032 485.931L299.928 469.804C303.587 465.471 310.237 464.65 314.929 468.619L298.782 487.705L282.634 506.791C299.402 520.976 324.274 518.477 338.135 502.057L319.032 485.931ZM298.782 487.705L314.93 468.62C301.284 457.074 282.256 444.384 257.357 446.73C233.377 448.99 211.208 464.557 188.674 489.382L207.185 506.185L225.696 522.988C245.617 501.041 256.977 496.987 262.048 496.51C266.199 496.119 271.741 497.574 282.633 506.79L298.782 487.705ZM207.185 506.185L188.675 489.381C191.552 486.211 196.207 485.135 200.345 487.027L189.949 509.763L179.552 532.498C195.457 539.771 214.121 535.739 225.695 522.988L207.185 506.185ZM189.949 509.763L200.346 487.028C183.388 479.272 162.737 471.796 141.031 474.373C117.498 477.167 97.9711 490.944 82.0987 514.363L102.793 528.389L123.488 542.415C133.531 527.598 141.434 524.676 146.927 524.024C154.246 523.155 164.216 525.484 179.551 532.498L189.949 509.763ZM102.793 528.389L82.0989 514.362C85.0394 510.024 94.6653 501.922 107.761 507.268C114.223 509.906 118.962 515.302 120.881 521.645C122.7 527.66 121.518 532.668 120.418 535.401L97.2279 526.061L74.0383 516.72C72.0323 521.701 70.754 528.624 73.0225 536.123C75.3905 543.951 81.1237 550.4 88.8643 553.56C104.515 559.949 117.829 550.764 123.488 542.415L102.793 528.389ZM97.2279 526.061L120.417 535.402C130.289 510.896 144.14 478.176 151.002 438.936L126.375 434.63L101.749 430.324C95.9517 463.478 84.2868 491.281 74.0389 516.719L97.2279 526.061ZM126.375 434.63L151.002 438.936C156.001 410.343 154.105 377.717 152.236 351.993C151.256 338.511 150.295 327.216 149.926 317.674C149.745 312.991 149.734 309.273 149.886 306.402C150.049 303.316 150.354 302.316 150.276 302.569L126.375 295.236L102.475 287.903C99.483 297.655 99.5869 309.86 99.9633 319.604C100.376 330.274 101.458 343.113 102.367 355.618C104.276 381.872 105.541 408.64 101.749 430.324L126.375 434.63ZM232.458 170.979L207.463 171.444C207.363 166.074 209.807 160.971 214.058 157.682L229.355 177.456L244.651 197.23C252.903 190.847 257.648 180.941 257.454 170.515L232.458 170.979ZM229.355 177.456L214.059 157.682L198.443 169.761L213.74 189.535L229.036 209.309L244.651 197.23L229.355 177.456ZM213.74 189.535L198.444 169.76C205.707 164.142 216.12 165.307 221.962 172.394L202.671 188.296L183.38 204.197C194.72 217.955 214.936 220.216 229.035 209.31L213.74 189.535ZM202.671 188.296L221.963 172.395L196.723 141.775L177.432 157.676L158.141 173.577L183.38 204.197L202.671 188.296ZM177.432 157.676L196.723 141.774C195.287 140.033 195.197 137.545 196.501 135.703L176.101 121.252L155.701 106.801C141.35 127.059 142.35 154.421 158.141 173.577L177.432 157.676ZM176.101 121.252L196.501 135.703L250.517 59.4511L230.117 45L209.716 30.5489L155.701 106.801L176.101 121.252ZM230.117 45L205.121 45.4646L207.463 171.444L232.458 170.979L257.454 170.515L255.112 44.5354L230.117 45Z" fill="#2E2D3C" mask="url(#path-1-outside-1_14_118)"/>
<path d="M230.116 45L176.101 121.252C168.273 132.302 168.818 147.226 177.432 157.675L202.672 188.296C205.42 191.63 210.321 192.179 213.739 189.535L229.355 177.457C231.355 175.909 232.506 173.508 232.459 170.98L230.116 45Z" fill="#C990F7"/>
<mask id="mask0_14_118" style="mask-type:alpha" maskUnits="userSpaceOnUse" x="96" y="168" width="397" height="363">
<path fill-rule="evenodd" clip-rule="evenodd" d="M305.256 168.237C325.705 169.69 447.085 245.372 453.362 255.844C459.088 265.4 487.71 399.325 492.669 422.655C493.138 424.863 492.472 427.071 491.139 428.892C481.921 441.481 470.638 472.235 478.414 520.236C478.99 523.793 474.528 525.311 472.925 522.083C461.561 499.204 443.01 475.304 409.708 497.574C402.457 502.422 392.048 499.991 388.363 492.085C376.492 466.617 355.442 442.798 319.032 485.931C313.93 491.974 304.819 492.813 298.781 487.705C274.243 466.943 249.641 459.413 207.185 506.184C202.837 510.975 195.832 512.453 189.948 509.762C157.654 494.993 128.708 490.153 102.794 528.389C100.075 532.4 95.4175 530.555 97.2277 526.061C107.288 501.089 120.046 470.827 126.376 434.63C135.167 384.353 120.054 315.84 126.375 295.236C132.699 274.632 284.807 166.786 305.256 168.237ZM303.231 319.371C301.289 282.303 276.561 252.635 255.908 253.83C235.256 255.025 210.868 285.19 212.809 322.257C214.751 359.325 234.858 379.598 264.59 377.878C294.322 376.158 305.173 356.439 303.231 319.371ZM393.257 267.237C372.385 258.737 363.545 289.331 365.756 309.237C368.701 335.737 381.257 361.441 403.756 369.737C426.256 378.032 436.698 352.775 431.256 327.237C425.814 301.699 420.574 278.362 393.257 267.237Z" fill="#FF0000"/>
</mask>
<g mask="url(#mask0_14_118)">
<rect x="20.2546" y="162.737" width="560" height="383" fill="url(#paint0_linear_14_118)"/>
<g filter="url(#filter0_f_14_118)">
<path d="M199.754 454.737L164.254 480.237L467.255 480.237L495.961 425.343L342.255 380.737L199.754 454.737Z" fill="url(#paint1_linear_14_118)" fill-opacity="0.54"/>
</g>
<g filter="url(#filter1_f_14_118)">
<path d="M301.255 139.737L546.834 160.727L494.938 439.752L343.255 378.237L301.255 139.737Z" fill="#F9F8FE" fill-opacity="0.48"/>
</g>
</g>
<defs>
<filter id="filter0_f_14_118" x="157.954" y="374.437" width="344.307" height="112.1" filterUnits="userSpaceOnUse" color-interpolation-filters="sRGB">
<feFlood flood-opacity="0" result="BackgroundImageFix"/>
<feBlend mode="normal" in="SourceGraphic" in2="BackgroundImageFix" result="shape"/>
<feGaussianBlur stdDeviation="3.15" result="effect1_foregroundBlur_14_118"/>
</filter>
<filter id="filter1_f_14_118" x="294.955" y="133.437" width="258.18" height="312.615" filterUnits="userSpaceOnUse" color-interpolation-filters="sRGB">
<feFlood flood-opacity="0" result="BackgroundImageFix"/>
<feBlend mode="normal" in="SourceGraphic" in2="BackgroundImageFix" result="shape"/>
<feGaussianBlur stdDeviation="3.15" result="effect1_foregroundBlur_14_118"/>
</filter>
<linearGradient id="paint0_linear_14_118" x1="300.255" y1="162.737" x2="322.255" y2="545.737" gradientUnits="userSpaceOnUse">
<stop stop-color="white"/>
<stop offset="0.807692" stop-color="#CDCBFF"/>
<stop offset="1" stop-color="#F2F2FF"/>
</linearGradient>
<linearGradient id="paint1_linear_14_118" x1="285.806" y1="391.838" x2="289.724" y2="476.74" gradientUnits="userSpaceOnUse">
<stop stop-color="#BBB7F9"/>
<stop offset="1" stop-color="#BBB7F9" stop-opacity="0"/>
</linearGradient>
</defs>
</svg>
